<?xml version="1.0" encoding="UTF-8" standalone="no"?>
<!-- Generator: Adobe Illustrator 14.0.0, SVG Export Plug-In . SVG Version: 6.00 Build 43363)  -->

<svg
   xmlns:dc="http://purl.org/dc/elements/1.1/"
   xmlns:cc="http://creativecommons.org/ns#"
   xmlns:rdf="http://www.w3.org/1999/02/22-rdf-syntax-ns#"
   xmlns:svg="http://www.w3.org/2000/svg"
   xmlns="http://www.w3.org/2000/svg"
   xmlns:xlink="http://www.w3.org/1999/xlink"
   xmlns:sodipodi="http://sodipodi.sourceforge.net/DTD/sodipodi-0.dtd"
   xmlns:inkscape="http://www.inkscape.org/namespaces/inkscape"
   version="1.1"
   id="Layer_1"
   x="0px"
   y="0px"
   width="64px"
   height="64px"
   viewBox="0 0 64 64"
   enable-background="new 0 0 64 64"
   xml:space="preserve"
   inkscape:version="0.48.0 r9654"
   sodipodi:docname="notfound.svg"
   inkscape:export-filename="C:\Users\Stephen\My Projects\SuperTuxKart\Web Interface\trunk\image\notfound.png"
   inkscape:export-xdpi="421.875"
   inkscape:export-ydpi="421.875"><metadata
   id="metadata137"><rdf:RDF><cc:Work
       rdf:about=""><dc:format>image/svg+xml</dc:format><dc:type
         rdf:resource="http://purl.org/dc/dcmitype/StillImage" /><dc:title></dc:title></cc:Work></rdf:RDF></metadata><defs
   id="defs135"><linearGradient
     inkscape:collect="always"
     xlink:href="#SVGID_10_"
     id="linearGradient3924"
     x1="10.5625"
     y1="31.8125"
     x2="52.625"
     y2="31.8125"
     gradientUnits="userSpaceOnUse" /></defs><sodipodi:namedview
   pagecolor="#ffffff"
   bordercolor="#666666"
   borderopacity="1"
   objecttolerance="10"
   gridtolerance="10"
   guidetolerance="10"
   inkscape:pageopacity="0"
   inkscape:pageshadow="2"
   inkscape:window-width="1120"
   inkscape:window-height="691"
   id="namedview133"
   showgrid="false"
   inkscape:zoom="4.546875"
   inkscape:cx="32"
   inkscape:cy="6.7917751"
   inkscape:window-x="0"
   inkscape:window-y="0"
   inkscape:window-maximized="0"
   inkscape:current-layer="g39" />
<g
   id="g3">
	<g
   id="g5">
		
	</g>
	<g
   id="g39">
		<g
   id="g41">
			<g
   id="g43">
				<path
   d="M61.166,57.498      c0,1.518-1.229,2.746-2.746,2.746H5.915c-1.519,0-2.747-1.229-2.747-2.746V6.214c0-1.518,1.229-2.748,2.747-2.748L58.42,3.467      c1.518-0.001,2.746,1.229,2.746,2.747V57.498z"
   id="path45"
   stroke-linejoin="round"
   stroke-linecap="round"
   stroke-width="4"
   stroke="#231F20"
   fill="#231F20" />
				<linearGradient
   id="SVGID_1_"
   gradientUnits="userSpaceOnUse"
   x1="31.7803"
   y1="8.7651"
   x2="32.7803"
   y2="56.766">
					<stop
   offset="0"
   style="stop-color:#EEEFEF"
   id="stop48" />
					<stop
   offset="1"
   style="stop-color:#D0D0D3"
   id="stop50" />
				</linearGradient>
				<path
   d="M61.259,57.398c0,1.518-1.229,2.746-2.746,2.746H6.008c-1.519,0-2.747-1.229-2.747-2.746V6.114      c0-1.518,1.229-2.747,2.747-2.747l52.505,0.001c1.518-0.001,2.746,1.229,2.746,2.746V57.398z"
   id="path52"
   fill="url(#SVGID_1_)" />
			</g>
			<linearGradient
   id="SVGID_2_"
   gradientUnits="userSpaceOnUse"
   x1="58.0527"
   y1="23.0508"
   x2="53.6193"
   y2="53.8223">
				<stop
   offset="0"
   style="stop-color:#D4D4D6"
   id="stop55" />
				<stop
   offset="1"
   style="stop-color:#929396"
   id="stop57" />
			</linearGradient>
			<path
   d="M61.538,27.318h-0.375c-5.432,5.981-16.08,19.612-7.838,32.926H53.7     C45.458,46.93,56.106,33.299,61.538,27.318z"
   id="path59"
   fill="url(#SVGID_2_)" />
			<linearGradient
   id="SVGID_3_"
   gradientUnits="userSpaceOnUse"
   x1="30.2524"
   y1="5.5757"
   x2="32.2523"
   y2="22.2413">
				<stop
   offset="0"
   style="stop-color:#B92326"
   id="stop62" />
				<stop
   offset="1"
   style="stop-color:#ED2A25"
   id="stop64" />
			</linearGradient>
			<path
   d="M58.513,3.284H6.008c-1.518,0-2.747,1.23-2.747,2.748V38.15     C14.262,26.922,40.583,13.068,61.25,10.318C61.5,5.818,61.25,3.235,58.513,3.284z"
   id="path66"
   fill="url(#SVGID_3_)" />
			<linearGradient
   id="SVGID_4_"
   gradientUnits="userSpaceOnUse"
   x1="57.585"
   y1="33.1504"
   x2="58.1053"
   y2="58.1278">
				<stop
   offset="0"
   style="stop-color:#B92326"
   id="stop69" />
				<stop
   offset="1"
   style="stop-color:#ED2A25"
   id="stop71" />
			</linearGradient>
			<path
   d="M57.333,60.152l1.223,0.004c0.67,0,2.693-0.654,2.693-2.637V29.985     C57.999,35.068,49.666,46.568,57.333,60.152z"
   id="path73"
   fill="url(#SVGID_4_)" />
			<linearGradient
   id="SVGID_5_"
   gradientUnits="userSpaceOnUse"
   x1="34.3545"
   y1="21.3623"
   x2="29.3202"
   y2="56.3043">
				<stop
   offset="0"
   style="stop-color:#D4D4D6"
   id="stop76" />
				<stop
   offset="1"
   style="stop-color:#929396"
   id="stop78" />
			</linearGradient>
			<path
   d="M53.284,60.244c-8.264-13.35,2.463-27.018,7.882-32.974l-0.034-16.01     c-1.446,0.188-3.225,0.553-3.987,0.708C26.652,19.721,9.877,37.91,3.168,45.818v11.346v0.334c0,1.518,1.229,2.746,2.747,2.746     H53.284z"
   id="path80"
   fill="url(#SVGID_5_)" />
			<g
   id="g82">
				<g
   id="g84">
					<linearGradient
   id="SVGID_6_"
   gradientUnits="userSpaceOnUse"
   x1="26.333"
   y1="39.5117"
   x2="26.7333"
   y2="58.7234">
						<stop
   offset="0"
   style="stop-color:#D4D4D6"
   id="stop87" />
						<stop
   offset="1"
   style="stop-color:#929396"
   id="stop89" />
					</linearGradient>
					<path
   d="M18.493,60.277c8.892,0,8.892,0,8.892,0s0.514-13.107,7.182-22.691       c-2.736-0.564-2.736-0.564-2.736-0.564S23.11,43.223,18.493,60.277z"
   id="path91"
   fill="url(#SVGID_6_)" />
					<linearGradient
   id="SVGID_7_"
   gradientUnits="userSpaceOnUse"
   x1="48.0879"
   y1="22.1216"
   x2="29.4933"
   y2="40.8444">
						<stop
   offset="0"
   style="stop-color:#D4D4D6"
   id="stop94" />
						<stop
   offset="1"
   style="stop-color:#929396"
   id="stop96" />
					</linearGradient>
					<path
   d="M39.609,28.516c0,0,4.873-5.387,10.259-7.182c0.513,0.641,0.513,0.641,0.513,0.641       s-7.31,5.002-8.72,7.438C40.122,28.772,39.609,28.516,39.609,28.516z"
   id="path98"
   fill="url(#SVGID_7_)" />
					<linearGradient
   id="SVGID_8_"
   gradientUnits="userSpaceOnUse"
   x1="60.3936"
   y1="15.8618"
   x2="55.9421"
   y2="20.344">
						<stop
   offset="0"
   style="stop-color:#D4D4D6"
   id="stop101" />
						<stop
   offset="1"
   style="stop-color:#929396"
   id="stop103" />
					</linearGradient>
					<path
   d="M58.078,17.086l0.511,0.529c0,0,1.795-0.898,2.308-1.154c0-1.026,0-0.642,0-0.642       S59.187,16.503,58.078,17.086z"
   id="path105"
   fill="url(#SVGID_8_)" />
				</g>
				<g
   id="g107">
					<path
   d="M18.209,60.277c8.892,0,8.892,0,8.892,0s0.513-13.107,7.182-22.691       c-2.736-0.564-2.736-0.564-2.736-0.564S22.825,43.223,18.209,60.277z"
   id="path109"
   fill="#FFFFFF" />
					<path
   d="M39.324,28.516c0,0,4.873-5.387,10.26-7.182c0.513,0.641,0.513,0.641,0.513,0.641       s-7.31,5.002-8.721,7.438C39.838,28.772,39.324,28.516,39.324,28.516z"
   id="path111"
   fill="#FFFFFF" />
					<path
   d="M57.794,17.086l0.51,0.529c0,0,1.796-0.898,2.309-1.154c0-1.026,0-0.642,0-0.642       S58.902,16.503,57.794,17.086z"
   id="path113"
   fill="#FFFFFF" />
				</g>
			</g>
		</g>
		
		
		<linearGradient
   id="SVGID_9_"
   gradientUnits="userSpaceOnUse"
   x1="31.8428"
   y1="14.2046"
   x2="30.9979"
   y2="44.1931">
			<stop
   offset="0"
   style="stop-color:#FFC61F"
   id="stop120" />
			<stop
   offset="0.7253"
   style="stop-color:#E39927"
   id="stop122" />
		</linearGradient>
		
		<linearGradient
   id="SVGID_10_"
   gradientUnits="userSpaceOnUse"
   x1="31.728"
   y1="41.2402"
   x2="31.2838"
   y2="57.0097">
			<stop
   offset="0"
   style="stop-color:#FFC61F"
   id="stop127" />
			<stop
   offset="0.7253"
   style="stop-color:#E39927"
   id="stop129" />
		</linearGradient>
		
	</g>
<g
   style="font-size:40px;font-style:normal;font-weight:normal;line-height:125%;letter-spacing:0px;word-spacing:0px;fill:#1a1a1a;fill-opacity:1;stroke:none;font-family:Maestro;-inkscape-font-specification:Maestro"
   id="text3114"><path
     sodipodi:type="inkscape:offset"
     inkscape:radius="0"
     inkscape:original="M 10.71875 7.75 A 0.21995327 0.21995327 0 0 0 10.71875 7.78125 A 0.21995327 0.21995327 0 0 0 10.65625 7.8125 A 0.21995327 0.21995327 0 0 0 10.625 7.84375 A 0.21995327 0.21995327 0 0 0 10.59375 7.9375 A 0.21995327 0.21995327 0 0 0 10.59375 7.96875 A 0.21995327 0.21995327 0 0 0 10.59375 8 A 0.21995327 0.21995327 0 0 0 10.59375 8.03125 A 0.21995327 0.21995327 0 0 0 10.625 8.09375 L 26.53125 30.5 L 9.125 55.53125 A 0.21995327 0.21995327 0 0 0 9.125 55.5625 A 0.21995327 0.21995327 0 0 0 9.09375 55.625 A 0.21995327 0.21995327 0 0 0 9.09375 55.65625 A 0.21995327 0.21995327 0 0 0 9.09375 55.6875 A 0.21995327 0.21995327 0 0 0 9.09375 55.71875 A 0.21995327 0.21995327 0 0 0 9.125 55.78125 A 0.21995327 0.21995327 0 0 0 9.15625 55.8125 A 0.21995327 0.21995327 0 0 0 9.1875 55.84375 A 0.21995327 0.21995327 0 0 0 9.25 55.875 A 0.21995327 0.21995327 0 0 0 9.28125 55.875 A 0.21995327 0.21995327 0 0 0 9.3125 55.875 L 18.5 55.875 A 0.21995327 0.21995327 0 0 0 18.53125 55.875 A 0.21995327 0.21995327 0 0 0 18.59375 55.84375 A 0.21995327 0.21995327 0 0 0 18.65625 55.8125 A 0.21995327 0.21995327 0 0 0 18.6875 55.78125 L 31.5625 36.59375 L 44.34375 55.78125 A 0.21995327 0.21995327 0 0 0 44.5 55.875 A 0.21995327 0.21995327 0 0 0 44.53125 55.875 L 53.875 55.875 A 0.21995327 0.21995327 0 0 0 53.90625 55.875 A 0.21995327 0.21995327 0 0 0 53.96875 55.84375 A 0.21995327 0.21995327 0 0 0 54.03125 55.8125 A 0.21995327 0.21995327 0 0 0 54.0625 55.78125 A 0.21995327 0.21995327 0 0 0 54.09375 55.6875 A 0.21995327 0.21995327 0 0 0 54.09375 55.65625 A 0.21995327 0.21995327 0 0 0 54.09375 55.625 A 0.21995327 0.21995327 0 0 0 54.09375 55.59375 A 0.21995327 0.21995327 0 0 0 54.0625 55.53125 L 36.4375 30.5 L 52.40625 8.09375 A 0.21995327 0.21995327 0 0 0 52.40625 8.0625 A 0.21995327 0.21995327 0 0 0 52.4375 8.03125 A 0.21995327 0.21995327 0 0 0 52.4375 8 A 0.21995327 0.21995327 0 0 0 52.4375 7.9375 A 0.21995327 0.21995327 0 0 0 52.4375 7.90625 A 0.21995327 0.21995327 0 0 0 52.40625 7.84375 A 0.21995327 0.21995327 0 0 0 52.375 7.8125 A 0.21995327 0.21995327 0 0 0 52.34375 7.78125 A 0.21995327 0.21995327 0 0 0 52.28125 7.75 A 0.21995327 0.21995327 0 0 0 52.25 7.75 A 0.21995327 0.21995327 0 0 0 52.21875 7.75 L 42.9375 7.75 A 0.21995327 0.21995327 0 0 0 42.90625 7.75 A 0.21995327 0.21995327 0 0 0 42.84375 7.78125 A 0.21995327 0.21995327 0 0 0 42.78125 7.8125 A 0.21995327 0.21995327 0 0 0 42.75 7.84375 L 31.5625 24.71875 L 20.21875 7.84375 A 0.21995327 0.21995327 0 0 0 20.0625 7.75 A 0.21995327 0.21995327 0 0 0 20.03125 7.75 L 10.8125 7.75 A 0.21995327 0.21995327 0 0 0 10.78125 7.75 A 0.21995327 0.21995327 0 0 0 10.75 7.75 A 0.21995327 0.21995327 0 0 0 10.71875 7.75 z "
     xlink:href="#path3891"
     style="font-size:72px;font-variant:normal;font-weight:bold;font-stretch:normal;fill:#1a1a1a;font-family:Shruti;-inkscape-font-specification:Shruti Bold"
     id="path3893"
     inkscape:href="#path3891"
     d="m 10.71875,7.75 a 0.21995327,0.21995327 0 0 0 0,0.03125 0.21995327,0.21995327 0 0 0 -0.0625,0.03125 0.21995327,0.21995327 0 0 0 -0.03125,0.03125 0.21995327,0.21995327 0 0 0 -0.03125,0.09375 0.21995327,0.21995327 0 0 0 0,0.03125 0.21995327,0.21995327 0 0 0 0,0.03125 0.21995327,0.21995327 0 0 0 0,0.03125 0.21995327,0.21995327 0 0 0 0.03125,0.0625 L 26.53125,30.5 9.125,55.53125 a 0.21995327,0.21995327 0 0 0 0,0.03125 0.21995327,0.21995327 0 0 0 -0.03125,0.0625 0.21995327,0.21995327 0 0 0 0,0.03125 0.21995327,0.21995327 0 0 0 0,0.03125 0.21995327,0.21995327 0 0 0 0,0.03125 0.21995327,0.21995327 0 0 0 0.03125,0.0625 0.21995327,0.21995327 0 0 0 0.03125,0.03125 0.21995327,0.21995327 0 0 0 0.03125,0.03125 0.21995327,0.21995327 0 0 0 0.0625,0.03125 0.21995327,0.21995327 0 0 0 0.03125,0 0.21995327,0.21995327 0 0 0 0.03125,0 l 9.1875,0 a 0.21995327,0.21995327 0 0 0 0.03125,0 0.21995327,0.21995327 0 0 0 0.0625,-0.03125 0.21995327,0.21995327 0 0 0 0.0625,-0.03125 0.21995327,0.21995327 0 0 0 0.03125,-0.03125 l 12.875,-19.1875 12.78125,19.1875 A 0.21995327,0.21995327 0 0 0 44.5,55.875 a 0.21995327,0.21995327 0 0 0 0.03125,0 l 9.34375,0 a 0.21995327,0.21995327 0 0 0 0.03125,0 0.21995327,0.21995327 0 0 0 0.0625,-0.03125 0.21995327,0.21995327 0 0 0 0.0625,-0.03125 0.21995327,0.21995327 0 0 0 0.03125,-0.03125 0.21995327,0.21995327 0 0 0 0.03125,-0.09375 0.21995327,0.21995327 0 0 0 0,-0.03125 0.21995327,0.21995327 0 0 0 0,-0.03125 0.21995327,0.21995327 0 0 0 0,-0.03125 0.21995327,0.21995327 0 0 0 -0.03125,-0.0625 L 36.4375,30.5 52.40625,8.09375 a 0.21995327,0.21995327 0 0 0 0,-0.03125 0.21995327,0.21995327 0 0 0 0.03125,-0.03125 0.21995327,0.21995327 0 0 0 0,-0.03125 0.21995327,0.21995327 0 0 0 0,-0.0625 0.21995327,0.21995327 0 0 0 0,-0.03125 A 0.21995327,0.21995327 0 0 0 52.40625,7.84375 0.21995327,0.21995327 0 0 0 52.375,7.8125 0.21995327,0.21995327 0 0 0 52.34375,7.78125 0.21995327,0.21995327 0 0 0 52.28125,7.75 a 0.21995327,0.21995327 0 0 0 -0.03125,0 0.21995327,0.21995327 0 0 0 -0.03125,0 l -9.28125,0 a 0.21995327,0.21995327 0 0 0 -0.03125,0 0.21995327,0.21995327 0 0 0 -0.0625,0.03125 A 0.21995327,0.21995327 0 0 0 42.78125,7.8125 0.21995327,0.21995327 0 0 0 42.75,7.84375 L 31.5625,24.71875 20.21875,7.84375 A 0.21995327,0.21995327 0 0 0 20.0625,7.75 a 0.21995327,0.21995327 0 0 0 -0.03125,0 l -9.21875,0 a 0.21995327,0.21995327 0 0 0 -0.03125,0 0.21995327,0.21995327 0 0 0 -0.03125,0 0.21995327,0.21995327 0 0 0 -0.03125,0 z" /><path
     sodipodi:type="inkscape:offset"
     inkscape:radius="-0.87926126"
     inkscape:original="M 10.71875 7.75 A 0.21995327 0.21995327 0 0 0 10.71875 7.78125 A 0.21995327 0.21995327 0 0 0 10.65625 7.8125 A 0.21995327 0.21995327 0 0 0 10.625 7.84375 A 0.21995327 0.21995327 0 0 0 10.59375 7.9375 A 0.21995327 0.21995327 0 0 0 10.59375 7.96875 A 0.21995327 0.21995327 0 0 0 10.59375 8 A 0.21995327 0.21995327 0 0 0 10.59375 8.03125 A 0.21995327 0.21995327 0 0 0 10.625 8.09375 L 26.53125 30.5 L 9.125 55.53125 A 0.21995327 0.21995327 0 0 0 9.125 55.5625 A 0.21995327 0.21995327 0 0 0 9.09375 55.625 A 0.21995327 0.21995327 0 0 0 9.09375 55.65625 A 0.21995327 0.21995327 0 0 0 9.09375 55.6875 A 0.21995327 0.21995327 0 0 0 9.09375 55.71875 A 0.21995327 0.21995327 0 0 0 9.125 55.78125 A 0.21995327 0.21995327 0 0 0 9.15625 55.8125 A 0.21995327 0.21995327 0 0 0 9.1875 55.84375 A 0.21995327 0.21995327 0 0 0 9.25 55.875 A 0.21995327 0.21995327 0 0 0 9.28125 55.875 A 0.21995327 0.21995327 0 0 0 9.3125 55.875 L 18.5 55.875 A 0.21995327 0.21995327 0 0 0 18.53125 55.875 A 0.21995327 0.21995327 0 0 0 18.59375 55.84375 A 0.21995327 0.21995327 0 0 0 18.65625 55.8125 A 0.21995327 0.21995327 0 0 0 18.6875 55.78125 L 31.5625 36.59375 L 44.34375 55.78125 A 0.21995327 0.21995327 0 0 0 44.5 55.875 A 0.21995327 0.21995327 0 0 0 44.53125 55.875 L 53.875 55.875 A 0.21995327 0.21995327 0 0 0 53.90625 55.875 A 0.21995327 0.21995327 0 0 0 53.96875 55.84375 A 0.21995327 0.21995327 0 0 0 54.03125 55.8125 A 0.21995327 0.21995327 0 0 0 54.0625 55.78125 A 0.21995327 0.21995327 0 0 0 54.09375 55.6875 A 0.21995327 0.21995327 0 0 0 54.09375 55.65625 A 0.21995327 0.21995327 0 0 0 54.09375 55.625 A 0.21995327 0.21995327 0 0 0 54.09375 55.59375 A 0.21995327 0.21995327 0 0 0 54.0625 55.53125 L 36.4375 30.5 L 52.40625 8.09375 A 0.21995327 0.21995327 0 0 0 52.40625 8.0625 A 0.21995327 0.21995327 0 0 0 52.4375 8.03125 A 0.21995327 0.21995327 0 0 0 52.4375 8 A 0.21995327 0.21995327 0 0 0 52.4375 7.9375 A 0.21995327 0.21995327 0 0 0 52.4375 7.90625 A 0.21995327 0.21995327 0 0 0 52.40625 7.84375 A 0.21995327 0.21995327 0 0 0 52.375 7.8125 A 0.21995327 0.21995327 0 0 0 52.34375 7.78125 A 0.21995327 0.21995327 0 0 0 52.28125 7.75 A 0.21995327 0.21995327 0 0 0 52.25 7.75 A 0.21995327 0.21995327 0 0 0 52.21875 7.75 L 42.9375 7.75 A 0.21995327 0.21995327 0 0 0 42.90625 7.75 A 0.21995327 0.21995327 0 0 0 42.84375 7.78125 A 0.21995327 0.21995327 0 0 0 42.78125 7.8125 A 0.21995327 0.21995327 0 0 0 42.75 7.84375 L 31.5625 24.71875 L 20.21875 7.84375 A 0.21995327 0.21995327 0 0 0 20.0625 7.75 A 0.21995327 0.21995327 0 0 0 20.03125 7.75 L 10.8125 7.75 A 0.21995327 0.21995327 0 0 0 10.78125 7.75 A 0.21995327 0.21995327 0 0 0 10.75 7.75 A 0.21995327 0.21995327 0 0 0 10.71875 7.75 z "
     xlink:href="#path3891"
     style="font-size:72px;font-variant:normal;font-weight:bold;font-stretch:normal;font-family:Shruti;-inkscape-font-specification:Shruti Bold;fill-opacity:1.0;fill:url(#linearGradient3924)"
     id="path3906"
     inkscape:href="#path3891"
     d="M 12.0625,8.625 27.25,30 a 0.87934918,0.87934918 0 0 1 0,1 l -16.6875,24 7.59375,0 12.6875,-18.90625 a 0.87934918,0.87934918 0 0 1 1.4375,0 L 44.875,55 52.625,55 35.71875,31 a 0.87934918,0.87934918 0 0 1 0,-1 L 50.9375,8.625 l -7.65625,0 -11,16.59375 a 0.87934918,0.87934918 0 0 1 -1.4375,0 L 19.6875,8.625 l -7.625,0 z" /></g></g>
</svg>