<svg xmlns="http://www.w3.org/2000/svg" xmlns:svg="http://www.w3.org/2000/svg" xmlns:xlink="http://www.w3.org/1999/xlink" id="Layer_1" width="64" height="64" x="0" y="0" enable-background="new 0 0 64 64" version="1.1" viewBox="0 0 64 64" xml:space="preserve"><metadata id="metadata137"/><defs id="defs135"><linearGradient id="linearGradient3924" x1="10.563" x2="52.625" y1="31.813" y2="31.813" gradientUnits="userSpaceOnUse" xlink:href="#SVGID_10_"/></defs><g id="g3"><g id="g39"><g id="g41"><g id="g43"><path id="path45" fill="#231F20" stroke="#231F20" stroke-linecap="round" stroke-linejoin="round" stroke-width="4" d="M61.166,57.498 c0,1.518-1.229,2.746-2.746,2.746H5.915c-1.519,0-2.747-1.229-2.747-2.746V6.214c0-1.518,1.229-2.748,2.747-2.748L58.42,3.467 c1.518-0.001,2.746,1.229,2.746,2.747V57.498z"/><linearGradient id="SVGID_1_" x1="31.78" x2="32.78" y1="8.765" y2="56.766" gradientUnits="userSpaceOnUse"><stop style="stop-color:#eeefef" id="stop48" offset="0"/><stop style="stop-color:#d0d0d3" id="stop50" offset="1"/></linearGradient><path id="path52" fill="url(#SVGID_1_)" d="M61.259,57.398c0,1.518-1.229,2.746-2.746,2.746H6.008c-1.519,0-2.747-1.229-2.747-2.746V6.114 c0-1.518,1.229-2.747,2.747-2.747l52.505,0.001c1.518-0.001,2.746,1.229,2.746,2.746V57.398z"/></g><linearGradient id="SVGID_2_" x1="58.053" x2="53.619" y1="23.051" y2="53.822" gradientUnits="userSpaceOnUse"><stop style="stop-color:#d4d4d6" id="stop55" offset="0"/><stop style="stop-color:#929396" id="stop57" offset="1"/></linearGradient><path id="path59" fill="url(#SVGID_2_)" d="M61.538,27.318h-0.375c-5.432,5.981-16.08,19.612-7.838,32.926H53.7 C45.458,46.93,56.106,33.299,61.538,27.318z"/><linearGradient id="SVGID_3_" x1="30.252" x2="32.252" y1="5.576" y2="22.241" gradientUnits="userSpaceOnUse"><stop style="stop-color:#b92326" id="stop62" offset="0"/><stop style="stop-color:#ed2a25" id="stop64" offset="1"/></linearGradient><path id="path66" fill="url(#SVGID_3_)" d="M58.513,3.284H6.008c-1.518,0-2.747,1.23-2.747,2.748V38.15 C14.262,26.922,40.583,13.068,61.25,10.318C61.5,5.818,61.25,3.235,58.513,3.284z"/><linearGradient id="SVGID_4_" x1="57.585" x2="58.105" y1="33.15" y2="58.128" gradientUnits="userSpaceOnUse"><stop style="stop-color:#b92326" id="stop69" offset="0"/><stop style="stop-color:#ed2a25" id="stop71" offset="1"/></linearGradient><path id="path73" fill="url(#SVGID_4_)" d="M57.333,60.152l1.223,0.004c0.67,0,2.693-0.654,2.693-2.637V29.985 C57.999,35.068,49.666,46.568,57.333,60.152z"/><linearGradient id="SVGID_5_" x1="34.355" x2="29.32" y1="21.362" y2="56.304" gradientUnits="userSpaceOnUse"><stop style="stop-color:#d4d4d6" id="stop76" offset="0"/><stop style="stop-color:#929396" id="stop78" offset="1"/></linearGradient><path id="path80" fill="url(#SVGID_5_)" d="M53.284,60.244c-8.264-13.35,2.463-27.018,7.882-32.974l-0.034-16.01 c-1.446,0.188-3.225,0.553-3.987,0.708C26.652,19.721,9.877,37.91,3.168,45.818v11.346v0.334c0,1.518,1.229,2.746,2.747,2.746 H53.284z"/><g id="g82"><g id="g84"><linearGradient id="SVGID_6_" x1="26.333" x2="26.733" y1="39.512" y2="58.723" gradientUnits="userSpaceOnUse"><stop style="stop-color:#d4d4d6" id="stop87" offset="0"/><stop style="stop-color:#929396" id="stop89" offset="1"/></linearGradient><path id="path91" fill="url(#SVGID_6_)" d="M18.493,60.277c8.892,0,8.892,0,8.892,0s0.514-13.107,7.182-22.691 c-2.736-0.564-2.736-0.564-2.736-0.564S23.11,43.223,18.493,60.277z"/><linearGradient id="SVGID_7_" x1="48.088" x2="29.493" y1="22.122" y2="40.844" gradientUnits="userSpaceOnUse"><stop style="stop-color:#d4d4d6" id="stop94" offset="0"/><stop style="stop-color:#929396" id="stop96" offset="1"/></linearGradient><path id="path98" fill="url(#SVGID_7_)" d="M39.609,28.516c0,0,4.873-5.387,10.259-7.182c0.513,0.641,0.513,0.641,0.513,0.641 s-7.31,5.002-8.72,7.438C40.122,28.772,39.609,28.516,39.609,28.516z"/><linearGradient id="SVGID_8_" x1="60.394" x2="55.942" y1="15.862" y2="20.344" gradientUnits="userSpaceOnUse"><stop style="stop-color:#d4d4d6" id="stop101" offset="0"/><stop style="stop-color:#929396" id="stop103" offset="1"/></linearGradient><path id="path105" fill="url(#SVGID_8_)" d="M58.078,17.086l0.511,0.529c0,0,1.795-0.898,2.308-1.154c0-1.026,0-0.642,0-0.642 S59.187,16.503,58.078,17.086z"/></g><g id="g107"><path id="path109" fill="#FFF" d="M18.209,60.277c8.892,0,8.892,0,8.892,0s0.513-13.107,7.182-22.691 c-2.736-0.564-2.736-0.564-2.736-0.564S22.825,43.223,18.209,60.277z"/><path id="path111" fill="#FFF" d="M39.324,28.516c0,0,4.873-5.387,10.26-7.182c0.513,0.641,0.513,0.641,0.513,0.641 s-7.31,5.002-8.721,7.438C39.838,28.772,39.324,28.516,39.324,28.516z"/><path id="path113" fill="#FFF" d="M57.794,17.086l0.51,0.529c0,0,1.796-0.898,2.309-1.154c0-1.026,0-0.642,0-0.642 S58.902,16.503,57.794,17.086z"/></g></g></g><linearGradient id="SVGID_9_" x1="31.843" x2="30.998" y1="14.205" y2="44.193" gradientUnits="userSpaceOnUse"><stop style="stop-color:#ffc61f" id="stop120" offset="0"/><stop style="stop-color:#e39927" id="stop122" offset=".725"/></linearGradient><linearGradient id="SVGID_10_" x1="31.728" x2="31.284" y1="41.24" y2="57.01" gradientUnits="userSpaceOnUse"><stop style="stop-color:#ffc61f" id="stop127" offset="0"/><stop style="stop-color:#e39927" id="stop129" offset=".725"/></linearGradient></g><g style="font-size:40px;font-style:normal;font-weight:400;line-height:125%;letter-spacing:0;word-spacing:0;fill:#1a1a1a;fill-opacity:1;stroke:none;font-family:Maestro;-inkscape-font-specification:Maestro" id="text3114"><path style="font-size:72px;font-variant:normal;font-weight:700;font-stretch:normal;fill:#1a1a1a;font-family:Shruti;-inkscape-font-specification:Shruti Bold" id="path3893" d="m 10.71875,7.75 a 0.21995327,0.21995327 0 0 0 0,0.03125 0.21995327,0.21995327 0 0 0 -0.0625,0.03125 0.21995327,0.21995327 0 0 0 -0.03125,0.03125 0.21995327,0.21995327 0 0 0 -0.03125,0.09375 0.21995327,0.21995327 0 0 0 0,0.03125 0.21995327,0.21995327 0 0 0 0,0.03125 0.21995327,0.21995327 0 0 0 0,0.03125 0.21995327,0.21995327 0 0 0 0.03125,0.0625 L 26.53125,30.5 9.125,55.53125 a 0.21995327,0.21995327 0 0 0 0,0.03125 0.21995327,0.21995327 0 0 0 -0.03125,0.0625 0.21995327,0.21995327 0 0 0 0,0.03125 0.21995327,0.21995327 0 0 0 0,0.03125 0.21995327,0.21995327 0 0 0 0,0.03125 0.21995327,0.21995327 0 0 0 0.03125,0.0625 0.21995327,0.21995327 0 0 0 0.03125,0.03125 0.21995327,0.21995327 0 0 0 0.03125,0.03125 0.21995327,0.21995327 0 0 0 0.0625,0.03125 0.21995327,0.21995327 0 0 0 0.03125,0 0.21995327,0.21995327 0 0 0 0.03125,0 l 9.1875,0 a 0.21995327,0.21995327 0 0 0 0.03125,0 0.21995327,0.21995327 0 0 0 0.0625,-0.03125 0.21995327,0.21995327 0 0 0 0.0625,-0.03125 0.21995327,0.21995327 0 0 0 0.03125,-0.03125 l 12.875,-19.1875 12.78125,19.1875 A 0.21995327,0.21995327 0 0 0 44.5,55.875 a 0.21995327,0.21995327 0 0 0 0.03125,0 l 9.34375,0 a 0.21995327,0.21995327 0 0 0 0.03125,0 0.21995327,0.21995327 0 0 0 0.0625,-0.03125 0.21995327,0.21995327 0 0 0 0.0625,-0.03125 0.21995327,0.21995327 0 0 0 0.03125,-0.03125 0.21995327,0.21995327 0 0 0 0.03125,-0.09375 0.21995327,0.21995327 0 0 0 0,-0.03125 0.21995327,0.21995327 0 0 0 0,-0.03125 0.21995327,0.21995327 0 0 0 0,-0.03125 0.21995327,0.21995327 0 0 0 -0.03125,-0.0625 L 36.4375,30.5 52.40625,8.09375 a 0.21995327,0.21995327 0 0 0 0,-0.03125 0.21995327,0.21995327 0 0 0 0.03125,-0.03125 0.21995327,0.21995327 0 0 0 0,-0.03125 0.21995327,0.21995327 0 0 0 0,-0.0625 0.21995327,0.21995327 0 0 0 0,-0.03125 A 0.21995327,0.21995327 0 0 0 52.40625,7.84375 0.21995327,0.21995327 0 0 0 52.375,7.8125 0.21995327,0.21995327 0 0 0 52.34375,7.78125 0.21995327,0.21995327 0 0 0 52.28125,7.75 a 0.21995327,0.21995327 0 0 0 -0.03125,0 0.21995327,0.21995327 0 0 0 -0.03125,0 l -9.28125,0 a 0.21995327,0.21995327 0 0 0 -0.03125,0 0.21995327,0.21995327 0 0 0 -0.0625,0.03125 A 0.21995327,0.21995327 0 0 0 42.78125,7.8125 0.21995327,0.21995327 0 0 0 42.75,7.84375 L 31.5625,24.71875 20.21875,7.84375 A 0.21995327,0.21995327 0 0 0 20.0625,7.75 a 0.21995327,0.21995327 0 0 0 -0.03125,0 l -9.21875,0 a 0.21995327,0.21995327 0 0 0 -0.03125,0 0.21995327,0.21995327 0 0 0 -0.03125,0 0.21995327,0.21995327 0 0 0 -0.03125,0 z" xlink:href="#path3891"/><path style="font-size:72px;font-variant:normal;font-weight:700;font-stretch:normal;font-family:Shruti;-inkscape-font-specification:Shruti Bold;fill-opacity:1;fill:url(#linearGradient3924)" id="path3906" d="M 12.0625,8.625 27.25,30 a 0.87934918,0.87934918 0 0 1 0,1 l -16.6875,24 7.59375,0 12.6875,-18.90625 a 0.87934918,0.87934918 0 0 1 1.4375,0 L 44.875,55 52.625,55 35.71875,31 a 0.87934918,0.87934918 0 0 1 0,-1 L 50.9375,8.625 l -7.65625,0 -11,16.59375 a 0.87934918,0.87934918 0 0 1 -1.4375,0 L 19.6875,8.625 l -7.625,0 z" xlink:href="#path3891"/></g></g></svg>
